<svg width="20" height="20" viewBox="0 0 20 20"
  xmlns="http://www.w3.org/2000/svg">
  <path d="M8.10816 6.56836e-09C9.61958 -6.08175e-05 11.1009 0.42231 12.385 1.21945C13.6692 2.01659 14.7049 3.15676 15.3754 4.5113C16.046 5.86584 16.3246 7.38082 16.1798 8.88529C16.035 10.3898 15.4726 11.8238 14.5561 13.0256L19.684 18.1557C19.8779 18.3502 19.9905 18.6113 19.9988 18.8859C20.0072 19.1604 19.9108 19.4279 19.7291 19.6339C19.5474 19.8399 19.2942 19.9691 19.0207 19.9951C18.7473 20.0212 18.4742 19.9422 18.2569 19.7741L18.1552 19.6844L13.0252 14.5565C12.0014 15.3372 10.8063 15.8629 9.53899 16.09C8.27165 16.3171 6.96845 16.2392 5.73721 15.8627C4.50597 15.4861 3.3821 14.8218 2.45859 13.9247C1.53508 13.0275 0.838481 11.9234 0.426439 10.7035C0.0143974 9.48372 -0.101243 8.18332 0.0890862 6.90993C0.279416 5.63655 0.770243 4.42679 1.52095 3.38077C2.27166 2.33475 3.26068 1.48253 4.40615 0.894632C5.55162 0.306737 6.82063 6.79554e-05 8.10816 6.56836e-09ZM8.10816 2.16229C6.5311 2.16229 5.01864 2.78877 3.90349 3.90392C2.78835 5.01907 2.16186 6.53153 2.16186 8.10859C2.16186 9.68564 2.78835 11.1981 3.90349 12.3133C5.01864 13.4284 6.5311 14.0549 8.10816 14.0549C9.68522 14.0549 11.1977 13.4284 12.3128 12.3133C13.428 11.1981 14.0545 9.68564 14.0545 8.10859C14.0545 6.53153 13.428 5.01907 12.3128 3.90392C11.1977 2.78877 9.68522 2.16229 8.10816 2.16229Z" />
</svg>
