<svg width="20" height="20" viewBox="0 0 20 20"
  xmlns="http://www.w3.org/2000/svg">
  <path d="M19.8857 2.57169C19.8008 2.39938 19.6734 2.25506 19.5173 2.15431C19.3611 2.05356 19.1821 2.0002 18.9996 2H0.997954C0.815781 2.0008 0.637259 2.05455 0.481587 2.15547C0.325915 2.25639 0.198983 2.40065 0.114441 2.57275C0.029899 2.74485 -0.009054 2.93828 0.00177096 3.13222C0.0125959 3.32617 0.0727892 3.5133 0.175878 3.67348L9.17671 17.5392C9.26846 17.6813 9.39123 17.7975 9.53444 17.8778C9.67765 17.9581 9.837 18 9.99879 18C10.1606 18 10.3199 17.9581 10.4631 17.8778C10.6064 17.7975 10.7291 17.6813 10.8209 17.5392L19.8217 3.67348C19.9258 3.51362 19.9868 3.32639 19.9981 3.13213C20.0094 2.93787 19.9705 2.74404 19.8857 2.57169ZM9.99879 15.0583L2.90613 4.13319H17.0914L9.99879 15.0583Z" />
</svg>
